<svg width="8" height="10" viewBox="0 0 8 10" fill="none" xmlns="http://www.w3.org/2000/svg">
<path d="M6.00224 8.17291V3.20856C6.00224 2.82828 5.9246 2.49851 5.76932 2.21925C5.62001 1.93405 5.39306 1.7142 5.08847 1.55971C4.78387 1.40523 4.40761 1.32799 3.95969 1.32799C3.54162 1.32799 3.17432 1.39929 2.85778 1.54189C2.54722 1.68449 2.30235 1.87166 2.12318 2.10339C1.94998 2.33512 1.86338 2.58467 1.86338 2.85205H0.206047C0.206047 2.50743 0.295633 2.16578 0.474804 1.82709C0.653975 1.48841 0.910788 1.18241 1.24524 0.909091C1.58567 0.629828 1.99179 0.409982 2.46361 0.249554C2.9414 0.0831848 3.47294 0 4.05823 0C4.76297 0 5.3841 0.118835 5.92161 0.356506C6.4651 0.594177 6.88914 0.953654 7.19373 1.43494C7.50429 1.91028 7.65957 2.50743 7.65957 3.22638V7.71836C7.65957 8.03922 7.68645 8.38087 7.7402 8.74332C7.79993 9.10576 7.88653 9.41771 8 9.67914V9.82175H6.271C6.18738 9.63161 6.12169 9.37908 6.07391 9.06417C6.02613 8.74332 6.00224 8.44623 6.00224 8.17291ZM6.28891 3.97504L6.30683 5.13369H4.63158C4.15976 5.13369 3.73871 5.17231 3.36842 5.24955C2.99813 5.32086 2.68757 5.43078 2.43673 5.57932C2.18589 5.72787 1.99477 5.91503 1.86338 6.14082C1.73199 6.36067 1.66629 6.61913 1.66629 6.91622C1.66629 7.21925 1.73498 7.49554 1.87234 7.7451C2.00971 7.99465 2.21575 8.1937 2.49048 8.34225C2.77118 8.48485 3.1146 8.55615 3.52072 8.55615C4.02837 8.55615 4.4763 8.4492 4.8645 8.23529C5.25271 8.02139 5.56028 7.75995 5.78723 7.45098C6.02016 7.14201 6.14558 6.84195 6.16349 6.5508L6.87122 7.34403C6.82941 7.59358 6.71594 7.86988 6.5308 8.17291C6.34565 8.47594 6.0978 8.76708 5.78723 9.04635C5.48264 9.31967 5.11833 9.54843 4.69429 9.73262C4.27622 9.91087 3.8044 10 3.27884 10C2.62187 10 2.04554 9.87225 1.54983 9.61676C1.0601 9.36126 0.677865 9.01961 0.403136 8.5918C0.134379 8.15805 0 7.6738 0 7.13904C0 6.6221 0.10153 6.16756 0.304591 5.7754C0.507652 5.3773 0.800299 5.04753 1.18253 4.7861C1.56476 4.51872 2.02464 4.3167 2.56215 4.18004C3.09966 4.04337 3.69989 3.97504 4.36282 3.97504H6.28891Z" fill="#1E1E1E"/>
</svg>
