<svg width="16" height="16" viewBox="0 0 16 16" fill="none" xmlns="http://www.w3.org/2000/svg">
<path d="M13 0C14.6569 0 16 1.34315 16 3V13C16 14.6569 14.6569 16 13 16H3C1.34315 16 0 14.6569 0 13V3C0 1.34315 1.34315 0 3 0H13Z" fill="#34C759"/>
<path d="M13 0C14.6569 0 16 1.34315 16 3V13C16 14.6569 14.6569 16 13 16H3C1.34315 16 0 14.6569 0 13V3C0 1.34315 1.34315 0 3 0H13Z" stroke="white"/>
<path d="M7.79176 10.6109L10.3601 3H12L8.62473 12H7.54881L7.79176 10.6109ZM5.64859 3L8.29501 10.6525L8.47722 12H7.4013L4 3H5.64859Z" fill="#1E1E1E"/>
</svg>
