<svg width="160" height="160" viewBox="0 0 160 160" fill="none" xmlns="http://www.w3.org/2000/svg">
<g clip-path="url(#clip0_7_543)">
<path d="M43.2671 7.35931H7.19391V43.4325H43.2671V7.35931Z" stroke="#CCCCCC" stroke-width="0.1" stroke-miterlimit="10"/>
<path d="M79.3402 7.35931H43.2671V43.4325H79.3402V7.35931Z" stroke="#CCCCCC" stroke-width="0.1" stroke-miterlimit="10"/>
<path d="M115.413 7.35931H79.3402V43.4325H115.413V7.35931Z" stroke="#CCCCCC" stroke-width="0.1" stroke-miterlimit="10"/>
<path d="M151.487 7.35931H115.413V43.4325H151.487V7.35931Z" stroke="#CCCCCC" stroke-width="0.1" stroke-miterlimit="10"/>
<path d="M43.2671 43.4325H7.19391V79.5056H43.2671V43.4325Z" stroke="#CCCCCC" stroke-width="0.1" stroke-miterlimit="10"/>
<path d="M79.3402 43.4325H43.2671V79.5056H79.3402V43.4325Z" stroke="#CCCCCC" stroke-width="0.1" stroke-miterlimit="10"/>
<path d="M115.413 43.4325H79.3402V79.5056H115.413V43.4325Z" stroke="#CCCCCC" stroke-width="0.1" stroke-miterlimit="10"/>
<path d="M151.487 43.4325H115.413V79.5056H151.487V43.4325Z" stroke="#CCCCCC" stroke-width="0.1" stroke-miterlimit="10"/>
<path d="M43.2671 79.5056H7.19391V115.579H43.2671V79.5056Z" stroke="#CCCCCC" stroke-width="0.1" stroke-miterlimit="10"/>
<path d="M79.3402 79.5056H43.2671V115.579H79.3402V79.5056Z" stroke="#CCCCCC" stroke-width="0.1" stroke-miterlimit="10"/>
<path d="M115.413 79.5056H79.3402V115.579H115.413V79.5056Z" stroke="#CCCCCC" stroke-width="0.1" stroke-miterlimit="10"/>
<path d="M151.487 79.5056H115.413V115.579H151.487V79.5056Z" stroke="#CCCCCC" stroke-width="0.1" stroke-miterlimit="10"/>
<path d="M43.2671 115.579H7.19391V151.652H43.2671V115.579Z" stroke="#CCCCCC" stroke-width="0.1" stroke-miterlimit="10"/>
<path d="M79.3402 115.579H43.2671V151.652H79.3402V115.579Z" stroke="#CCCCCC" stroke-width="0.1" stroke-miterlimit="10"/>
<path d="M115.413 115.579H79.3402V151.652H115.413V115.579Z" stroke="#CCCCCC" stroke-width="0.1" stroke-miterlimit="10"/>
<path d="M151.487 115.579H115.413V151.652H151.487V115.579Z" stroke="#CCCCCC" stroke-width="0.1" stroke-miterlimit="10"/>
<path d="M8.29865 78.9645H150.731" stroke="#8E8E93" stroke-linecap="round"/>
<path d="M150.731 79.5C51.671 79.5 84.3341 8.28369 57.5611 8.28369C38.8199 8.28369 48.9937 79.5 7.76318 79.5" stroke="#34C759" stroke-width="0.5" stroke-miterlimit="10" stroke-linecap="round"/>
<path d="M152.338 117.518C135.203 92.3511 117.533 59.6879 87.0114 7.74823C79.515 25.9539 32.9298 86.9964 7.22772 111.092" stroke="#FF2D55" stroke-width="0.5" stroke-miterlimit="10" stroke-linecap="round"/>
<path d="M151.487 7.35931C79.3402 7.35931 60.8978 25.3057 52.0599 79.5056C43.222 133.706 42.9514 151.652 7.19391 151.652" stroke="#FFCC00" stroke-width="2" stroke-miterlimit="10" stroke-linecap="round"/>
<path d="M59.5451 26.0272L44.4846 133.615" stroke="#00C0E8" stroke-miterlimit="10" stroke-linecap="round"/>
<path d="M151.487 7.35931H79.3402" stroke="#00C0E8" stroke-miterlimit="10" stroke-linecap="round"/>
<path d="M55.9547 151.787L7.19391 151.652" stroke="#00C0E8" stroke-miterlimit="10" stroke-linecap="round"/>
<circle cx="51.671" cy="83.2482" r="3.21277" fill="#D9D9D9"/>
<circle cx="44.1745" cy="133.582" r="3.21277" fill="#00C0E8"/>
<circle cx="59.1674" cy="26.4894" r="3.21277" fill="#00C0E8"/>
<circle cx="79.515" cy="7.21277" r="3.21277" fill="#00C0E8"/>
<circle cx="54.8837" cy="151.787" r="3.21277" fill="#00C0E8"/>
</g>
<defs>
<clipPath id="clip0_7_543">
<path d="M0 3C0 1.34315 1.34315 0 3 0H157C158.657 0 160 1.34315 160 3V157C160 158.657 158.657 160 157 160H3C1.34315 160 0 158.657 0 157V3Z" fill="white"/>
</clipPath>
</defs>
</svg>
