<svg width="12" height="12" viewBox="0 0 12 12" fill="none" xmlns="http://www.w3.org/2000/svg">
<path d="M10.5455 2.0202H9.9798V1.45455C9.9798 0.656566 9.32828 0 8.52525 0H1.45455C0.656566 0 0 0.651515 0 1.45455V8.52525C0 9.32323 0.651516 9.9798 1.45455 9.9798H2.0202V10.5455C2.0202 11.3434 2.67172 12 3.47475 12H10.5455C11.3434 12 12 11.3485 12 10.5455V3.47475C12 2.67677 11.3485 2.0202 10.5455 2.0202ZM2.02525 3.4697V9.08586H1.4596C1.14646 9.08586 0.89394 8.83333 0.89394 8.5202V1.44949C0.89394 1.13636 1.14646 0.883838 1.4596 0.883838H8.5303C8.84343 0.883838 9.09596 1.13636 9.09596 1.44949V2.01515H3.4798C2.68182 2.01515 2.02525 2.66667 2.02525 3.4697ZM9.32828 8.90909C9.32828 9.13636 9.14142 9.32323 8.91414 9.32323H5.19697C5.0101 9.32323 4.91919 9.10101 5.05051 8.9697L8.97475 5.04545C9.10606 4.91414 9.32828 5.00505 9.32828 5.19192V8.90909Z" fill="#00C0E8"/>
</svg>
