<svg width="12" height="12" viewBox="0 0 12 12" fill="none" xmlns="http://www.w3.org/2000/svg">
<path d="M10.5455 2.0202H9.9798V1.45455C9.9798 0.651515 9.32828 0 8.52525 0H1.45455C0.656566 0 0 0.651515 0 1.45455V8.52525C0 9.32323 0.651515 9.9798 1.45455 9.9798H2.0202V10.5455C2.0202 11.3434 2.67172 12 3.47475 12H10.5455C11.3434 12 12 11.3485 12 10.5455V3.47475C12 2.67677 11.3485 2.0202 10.5455 2.0202ZM0.888889 8.52525V1.45455C0.888889 1.14141 1.14141 0.888889 1.45455 0.888889H8.52525C8.83838 0.888889 9.09091 1.14141 9.09091 1.45455V2.0202H3.47475C2.67677 2.0202 2.0202 2.67172 2.0202 3.47475V9.09091H1.45455C1.14141 9.09091 0.888889 8.83838 0.888889 8.52525ZM11.1111 10.5455C11.1111 10.8586 10.8586 11.1111 10.5455 11.1111H3.47475C3.16162 11.1111 2.90909 10.8586 2.90909 10.5455V3.47475C2.90909 3.16162 3.16162 2.90909 3.47475 2.90909H10.5455C10.8586 2.90909 11.1111 3.16162 11.1111 3.47475V10.5455Z" fill="#B0B1B0"/>
<path d="M8.76769 4.9899H5.05051C4.86365 4.9899 4.77274 5.21212 4.90405 5.34343L8.82829 9.26768C8.95961 9.39899 9.18183 9.30808 9.18183 9.12121V5.40404C9.18183 5.17677 8.99496 4.9899 8.76769 4.9899Z" fill="#B0B1B0"/>
</svg>
